{"title":"The.Baby.of.Macon.1993.720p.BluRay.x264-iNVANDRAREN","uid":6937869,"size":7038344730,"categoryP":"video","categoryS":"hd___movies","magnet":"?xt=urn:btih:11d39b05dd801cbe3d77dc25020c5117da036577&amp;dn=The.Baby.of.Macon.1993.720p.BluRay.x264-iNVANDRAREN&amp;tr=udp%3A%2F%2Ftracker.openbittorrent.com%3A80&amp;tr=udp%3A%2F%2Fopen.demonii.com%3A1337&amp;tr=udp%3A%2F%2Ftracker.coppersurfer.tk%3A6969&amp;tr=udp%3A%2F%2Fexodus.desync.com%3A6969","seeders":5,"leechers":2,"uploader":"mfccorrea","files":4,"time":1325892754,"description":"A movie about the corruption in all levels of society. A baby is born from a supposed-to-be virgin woman, so a chain of hysteria about divine intervention in the birth takes place.\n\nA town cursed with barren women and famine is saved by a miracle birth to an old, ugly woman: the Mother. Immediately afterwards, the old woman's Daughter (Ormond) claims to have delivered the baby herself in a virgin birth. She imprisons the Mother and begins to exploit the Baby by selling blessings to the desperate townspeople of MÃƒÂ¢con.\n\n\nComplete name : The.Baby.of.Macon.1993.720p.BluRay.x264-iNVANDRAREN.mkv\nFormat : Matroska\nFile size : 6.55 GiB\nDuration : 2h 1mn\nOverall bit rate : 7 695 Kbps\nEncoded date : UTC 2010-08-19 14:00:07\nWriting application : mkvmerge v4.1.1 ('Bouncin' Back') built on Jul 3 2010 22:54:08\nWriting library : libebml v1.0.0 + libmatroska v1.0.0\n\nVideo\nID : 1\nFormat : AVC\nFormat/Info : Advanced Video Codec\nFormat profile : &lt;a class=&quot;__cf_email__&quot; href=&quot;/cdn-cgi/l/email-protection&quot; data-cfemail=&quot;6e260709062e225a405f&quot;&gt;[email&amp;#160;protected]&lt;/a&gt;&lt;script cf-hash='f9e31' type=&quot;text/javascript&quot;&gt;\n/* &lt;![CDATA[ */!function(){try{var t=&quot;currentScript&quot;in document?document.currentScript:function(){for(var t=document.getElementsByTagName(&quot;script&quot;),e=t.length;e--;)if(t[e].getAttribute(&quot;cf-hash&quot;))return t[e]}();if(t&amp;&amp;t.previousSibling){var e,r,n,i,c=t.previousSibling,a=c.getAttribute(&quot;data-cfemail&quot;);if(a){for(e=&quot;&quot;,r=parseInt(a.substr(0,2),16),n=2;a.length-n;n+=2)i=parseInt(a.substr(n,2),16)^r,e+=String.fromCharCode(i);e=document.createTextNode(e),c.parentNode.replaceChild(e,c)}}}catch(u){}}();/* ]]&gt; */&lt;/script&gt;\nFormat settings, CABAC : Yes\nFormat settings, ReFrames : 4 frames\nMuxing mode : Container profile=&lt;a class=&quot;__cf_email__&quot; href=&quot;/cdn-cgi/l/email-protection&quot; data-cfemail=&quot;d580bbbebbbaa2bb95e1fbe4&quot;&gt;[email&amp;#160;protected]&lt;/a&gt;&lt;script cf-hash='f9e31' type=&quot;text/javascript&quot;&gt;\n/* &lt;![CDATA[ */!function(){try{var t=&quot;currentScript&quot;in document?document.currentScript:function(){for(var t=document.getElementsByTagName(&quot;script&quot;),e=t.length;e--;)if(t[e].getAttribute(&quot;cf-hash&quot;))return t[e]}();if(t&amp;&amp;t.previousSibling){var e,r,n,i,c=t.previousSibling,a=c.getAttribute(&quot;data-cfemail&quot;);if(a){for(e=&quot;&quot;,r=parseInt(a.substr(0,2),16),n=2;a.length-n;n+=2)i=parseInt(a.substr(n,2),16)^r,e+=String.fromCharCode(i);e=document.createTextNode(e),c.parentNode.replaceChild(e,c)}}}catch(u){}}();/* ]]&gt; */&lt;/script&gt;\nCodec ID : V_MPEG4/ISO/AVC\nDuration : 2h 1mn\nBit rate : 6 787 Kbps\nNominal bit rate : 6 923 Kbps\nWidth : 1 280 pixels\nHeight : 544 pixels\nDisplay aspect ratio : 2.35:1\nFrame rate : 24.000 fps\nResolution : 8 bits\nColorimetry : 4:2:0\nScan type : Progressive\nBits/(Pixel*Frame) : 0.406\nStream size : 5.78 GiB (88%)\nWriting library : x264 core 98 r1649 c54c47d\n\nAudio\nID : 2\nFormat : DTS\nFormat/Info : Digital Theater Systems\nCodec ID : A_DTS\nDuration : 2h 1mn\nBit rate mode : Constant\nBit rate : 755 Kbps\nChannel(s) : 2 channels\nChannel positions : Front: L R\nSampling rate : 48.0 KHz\nResolution : 24 bits\nStream size : 658 MiB (10%)\n &lt;a href=&quot;\nhttp://www.imdb.com/title/tt0106335/&quot; rel=&quot;nofollow&quot; target=&quot;_NEW&quot;&gt;\nhttp://www.imdb.com/title/tt0106335/&lt;/a&gt;\n\nLanguage: English\nSubtitles: German, Spanish and Portuguese (srt)","torrent":{"xt":"urn:btih:11d39b05dd801cbe3d77dc25020c5117da036577","amp;dn":"The.Baby.of.Macon.1993.720p.BluRay.x264-iNVANDRAREN","amp;tr":["udp%3A%2F%2Ftracker.openbittorrent.com%3A80","udp%3A%2F%2Fopen.demonii.com%3A1337","udp%3A%2F%2Ftracker.coppersurfer.tk%3A6969","udp%3A%2F%2Fexodus.desync.com%3A6969"],"infoHash":"11d39b05dd801cbe3d77dc25020c5117da036577","infoHashBuffer":{"type":"Buffer","data":[17,211,155,5,221,128,28,190,61,119,220,37,2,12,81,23,218,3,101,119]},"announce":[],"urlList":[]}}